# xmcd
#
# Track frame offsets:
#	150
#	13678
#	26149
#	39707
#	50327
#	68106
#	78814
#	92825
#	117230
#	143948
#	160366
#	174109
#	195813
#	209397
#	223094
#	236149
#	249120
#	265383
#	281651
#	294967
#
# Disc length: 4256 seconds
#
# Revision: 0
# Processed by: cddbd v1.5.1PL0 Copyright (c) Steve Scherf et al.
# Submitted via: EasyCDDAExtractor 4.5.0.2
#
DISCID=1b109e14
DTITLE=Sly and The Family Stone - Anthology
DYEAR=1981
DGENRE=Funk
TTITLE0=Dance To The Music
TTITLE1=M'Lady
TTITLE2=Life
TTITLE3=Fun
TTITLE4=Sing A Simple Song
TTITLE5=Everyday People
TTITLE6=Stand!
TTITLE7=I Want To Take You Higher
TTITLE8=Don't Call Me Nigger, Whitey
TTITLE9=You Can Make It If You Try
TTITLE10=Hot Fun In The Summertime
TTITLE11=Thank You (Fallentime Be Mice Elf Agin)
TTITLE12=Everybody Is A Star
TTITLE13=Family Affair
TTITLE14=Runnin' Away
TTITLE15=(You Caught Me) Smilin'
TTITLE16=Thank You For Talkin' To Me Africa
TTITLE17=Babies Makin' Babies
TTITLE18=If You Want Me To Stay
TTITLE19=Que Sera, Sera (Whatever Will Be, Will Be)
EXTD=
EXTT0=
EXTT1=
EXTT2=
EXTT3=
EXTT4=
EXTT5=
EXTT6=
EXTT7=
EXTT8=
EXTT9=
EXTT10=
EXTT11=
EXTT12=
EXTT13=
EXTT14=
EXTT15=
EXTT16=
EXTT17=
EXTT18=
EXTT19=
PLAYORDER=
